<?xml version="1.0" encoding="iso-8859-1"?>
<!-- Generator: Adobe Illustrator 19.0.0, SVG Export Plug-In . SVG Version: 6.00 Build 0)  -->
<svg version="1.1" id="Capa_1" xmlns="http://www.w3.org/2000/svg" xmlns:xlink="http://www.w3.org/1999/xlink" x="0px" y="0px"
	 viewBox="0 0 512 512" style="enable-background:new 0 0 512 512;" xml:space="preserve">
<g>
	<g>
		<path d="M511.648,110.272c-0.128-1.088-0.288-2.144-0.64-3.2C508.512,91.84,495.904,80,480,80H32
			C16.096,80,3.488,91.84,0.992,107.072c-0.352,1.056-0.512,2.112-0.64,3.2C0.32,110.88,0,111.392,0,112v288
			c0,0.608,0.32,1.152,0.352,1.76c0.128,1.088,0.288,2.112,0.64,3.168C3.456,420.128,16.096,432,32,432h448
			c15.904,0,28.544-11.872,31.008-27.104c0.352-1.056,0.512-2.08,0.64-3.168c0.032-0.576,0.352-1.12,0.352-1.728V112
			C512,111.392,511.68,110.88,511.648,110.272z M468.928,112l-177.6,130.24L256,268.16l-35.296-25.888c0,0-0.032,0-0.032-0.032
			L43.072,112H468.928z M32,143.584l153.344,112.448L32,368.448V143.584z M43.072,400l169.344-124.128l34.112,25.024
			c2.816,2.08,6.144,3.104,9.472,3.104s6.656-1.024,9.472-3.104l34.112-25.024L468.928,400H43.072z M480,368.448L326.656,256.032
			L480,143.584V368.448z"/>
	</g>
</g>
<g>
</g>
<g>
</g>
<g>
</g>
<g>
</g>
<g>
</g>
<g>
</g>
<g>
</g>
<g>
</g>
<g>
</g>
<g>
</g>
<g>
</g>
<g>
</g>
<g>
</g>
<g>
</g>
<g>
</g>
</svg>
